HIERARCHY
ROOT Hips
{
  OFFSET 0 0 0
  CHANNELS 6 Xposition Yposition Zposition Zrotation Yrotation Xrotation
  JOINT LeftThigh
  {
    OFFSET 8.409438 0 -5.917753
    CHANNELS 3 Zrotation Yrotation Xrotation
    JOINT LeftLeg
    {
      OFFSET 0 0 -42.358652
      CHANNELS 3 Zrotation Yrotation Xrotation
      JOINT LeftFoot
      {
        OFFSET 0 0 -39.357303
        CHANNELS 3 Zrotation Yrotation Xrotation
      }
    }
  }
  JOINT RightThigh
  {
    OFFSET -8.409438 0 -5.917753
    CHANNELS 3 Zrotation Yrotation Xrotation
    JOINT RightLeg
    {
      OFFSET 0 0 -42.358652
      CHANNELS 3 Zrotation Yrotation Xrotation
      JOINT RightFoot
      {
        OFFSET 0 0 -39.357303
        CHANNELS 3 Zrotation Yrotation Xrotation
      }
    }
  }
  JOINT SpineLow
  {
    OFFSET 0 0 4.719101
    CHANNELS 3 Zrotation Yrotation Xrotation
    JOINT SpineMid
    {
      OFFSET 0 0 12.899191
      CHANNELS 3 Zrotation Yrotation Xrotation
      JOINT Chest
      {
        OFFSET 0 0 12.899191
        CHANNELS 3 Zrotation Yrotation Xrotation
        JOINT LeftShoulder
        {
          OFFSET 7.550562 1.41573 9.438202
          CHANNELS 3 Zrotation Yrotation Xrotation
          JOINT LeftArm
          {
            OFFSET 9.155056 0 4.247191
            CHANNELS 3 Zrotation Yrotation Xrotation
            JOINT LeftForearm
            {
              OFFSET 0 0 25.771955
              CHANNELS 3 Zrotation Yrotation Xrotation
              JOINT LeftHand
              {
                OFFSET 0 0 25.197169
                CHANNELS 3 Zrotation Yrotation Xrotation
              }
            }
          }
        }
        JOINT RightShoulder
        {
          OFFSET -7.550562 1.41573 9.438202
          CHANNELS 3 Zrotation Yrotation Xrotation
          JOINT RightArm
          {
            OFFSET -9.155056 0 4.247191
            CHANNELS 3 Zrotation Yrotation Xrotation
            JOINT RightForearm
            {
              OFFSET 0 0 -25.771955
              CHANNELS 3 Zrotation Yrotation Xrotation
              JOINT RightHand
              {
                OFFSET 0 0 -25.197169
                CHANNELS 3 Zrotation Yrotation Xrotation
              }
            }
          }
        }
        JOINT Neck
        {
          OFFSET 0 0 15.101124
          CHANNELS 3 Zrotation Yrotation Xrotation
          JOINT Head
          {
            OFFSET 0 0 11.325843
            CHANNELS 3 Zrotation Yrotation Xrotation
            End Site
            {
              OFFSET 0 0 14.157303
            }
          }
        }
      }
    }
  }
}
MOTION
Frames: 7
Frame Time: 0.0
0.0  101.685394  0.0  0.613437  -15.717396  -101.251681  17.850572  -30.439683  -26.817909  1.568782  25.976631  51.758176  -4.911393  3.813401  0.901865  -4.544804  16.936685  14.84557  -3.727116  11.972122  21.723593  -1.953672  0.545786  -7.091837  -0.788354  0.795978  2.869958  -2.057744  2.265433  7.820642  -2.057744  2.265433  7.820642  -13.265586  23.947809  6.820019  -139.417152  70.032986  -91.119099  -36.351548  -28.637779  74.465807  70.570766  -23.361671  -10.10874  20.32303  -9.060571  25.469867  88.888397  31.843498  34.32243  -42.60875  8.426575  -97.577986  71.689183  14.190252  40.113668  7.971034  -1.766171  -5.636302  5.962115  -1.398565  -4.204699  
0.0  101.685394  0.0  0.744913  -15.137661  -101.208562  17.605609  -30.165511  -26.616193  1.21743  25.953308  51.014559  -4.721332  3.709013  1.063566  -5.152074  17.100214  14.784628  -3.865541  12.027016  21.551964  -1.9  0.582518  -7.0429  -0.832844  0.802755  2.86192  -2.178698  2.288913  7.796913  -2.178698  2.288913  7.796913  -13.136237  23.891319  6.810727  -140.894521  70.300199  -92.401273  -36.366  -28.794755  74.75633  70.649961  -23.23984  -9.841557  20.376054  -9.04804  25.613308  89.266666  32.448321  34.589935  -42.996884  9.19695  -97.654297  71.755534  13.387345  40.664038  7.83293  -1.83585  -5.64628  5.857826  -1.449683  -4.211633  
0.0  101.685394  0.0  0.964118  -14.644062  -101.246497  17.125253  -29.864106  -26.312868  0.996092  25.982469  50.297767  -4.416053  3.583304  1.253352  -5.59666  17.419119  14.83519  -4.067536  11.949796  21.38667  -1.780866  0.716276  -7.05341  -0.88946  0.814515  2.842952  -2.332586  2.327006  7.742687  -2.332586  2.327006  7.742687  -12.799228  23.921177  6.862922  -142.439393  70.601715  -93.821888  -36.406383  -29.001908  75.04806  70.789659  -23.001472  -9.553493  20.431481  -9.024452  25.83948  89.610217  33.116564  34.791  -43.420381  10.061698  -97.783946  71.814653  12.283579  41.125847  7.819022  -1.877253  -5.624362  5.847052  -1.480333  -4.194686  
0.0  101.685394  0.0  1.130442  -14.069838  -101.207136  16.407299  -29.617446  -26.061255  1.008143  25.924363  49.74784  -4.105147  3.46396  1.436711  -6.464798  17.720266  14.70769  -3.892928  11.972618  21.238257  -1.763013  0.758212  -7.040132  -0.928041  0.83066  2.829877  -2.43654  2.375095  7.705035  -2.43654  2.375095  7.705036  -12.632551  23.819663  6.814413  -143.99366  70.818895  -95.208552  -36.29815  -29.175993  75.38526  71.057016  -22.569745  -9.230478  20.439963  -8.99801  26.04089  89.959732  33.874799  34.931806  -44.107986  10.868191  -97.929272  71.942363  10.950195  41.500799  7.646264  -1.958069  -5.715121  5.71642  -1.540499  -4.262211  
0.0  101.685394  0.0  1.341639  -13.646651  -101.233436  15.43593  -29.290569  -25.901272  1.411926  25.641979  49.57019  -3.871627  3.336762  1.588413  -7.274632  18.096318  14.603344  -3.634122  11.933165  21.115611  -1.733398  0.882325  -7.053724  -0.950871  0.852719  2.822976  -2.496603  2.437687  7.68461  -2.496603  2.437687  7.68461  -12.551474  23.601249  6.75334  -145.405595  70.685368  -96.777785  -36.110207  -29.339083  75.864634  71.336444  -21.975967  -8.835982  20.410547  -8.987055  26.216124  90.222448  34.738504  35.001048  -44.686675  11.720336  -98.048278  72.110932  9.510964  41.664356  7.526422  -2.058889  -5.841615  5.625136  -1.61657  -4.35616  
0.0  101.685394  0.0  1.50048  -13.136307  -101.136282  14.565529  -29.025621  -25.780493  1.743098  25.349109  49.315826  -3.666213  3.217406  1.748835  -8.114714  18.365398  14.420113  -3.373061  11.980786  20.942491  -1.723348  0.95728  -6.991684  -0.969339  0.870524  2.805188  -2.545681  2.487745  7.634689  -2.545681  2.487745  7.634689  -12.390189  23.380838  6.713408  -146.91392  70.504816  -98.160133  -35.82021  -29.444266  76.533416  71.757331  -20.982579  -8.580404  20.297019  -8.988844  26.402985  90.529787  35.678378  35.117495  -45.4117  12.630835  -98.220829  72.307755  7.908339  41.53138  7.347432  -2.113298  -5.998585  5.48983  -1.65756  -4.473781  
0.0  101.685394  0.0  1.663917  -12.755354  -101.071307  13.797023  -28.746635  -25.721815  2.182607  25.034994  49.182792  -3.399553  3.035778  1.988482  -8.736241  18.559043  14.276608  -3.116066  12.052978  20.795822  -1.668052  1.175143  -6.935411  -0.986631  0.880678  2.785307  -2.592521  2.516686  7.579322  -2.592521  2.516686  7.579322  -12.381341  23.121733  6.630908  -148.138754  70.073451  -99.601516  -35.556123  -29.422563  77.470543  72.13356  -19.737193  -8.5049  20.202357  -8.960835  26.658831  90.714599  36.839444  35.202776  -45.978513  13.557666  -98.433257  72.559  6.176793  41.04412  7.187386  -2.155743  -6.184099  5.368737  -1.690013  -4.612924  
